<svg width="24" height="24" viewBox="0 0 24 24" fill="none" xmlns="http://www.w3.org/2000/svg">
<path fill-rule="evenodd" clip-rule="evenodd" d="M17.96 3.00003H5.95996C5.69471 3.00003 5.44051 3.10532 5.25301 3.29283C5.06537 3.48047 4.95996 3.73496 4.95996 4.00003V14C4.95996 15.8565 5.69754 17.6369 7.01033 18.9497C8.32312 20.2625 10.1035 21 11.96 21C13.8164 21 15.5968 20.2625 16.9096 18.9497C18.2224 17.6369 18.96 15.8565 18.96 14V4.00003C18.96 3.73496 18.8546 3.48047 18.6669 3.29283C18.4794 3.10532 18.2252 3.00003 17.96 3.00003ZM5.95996 2.00003H17.96C18.4904 2.00003 18.999 2.21065 19.374 2.58572C19.7491 2.9608 19.96 3.4696 19.96 4.00003V14C19.96 16.1218 19.117 18.1565 17.6167 19.6568C16.1164 21.1571 14.0817 22 11.96 22C9.83823 22 7.80351 21.1571 6.30322 19.6568C4.80293 18.1565 3.95996 16.1218 3.95996 14V4.00003C3.95996 3.4696 4.17083 2.9608 4.5459 2.58572C4.92097 2.21065 5.42953 2.00003 5.95996 2.00003Z" fill="#282B33"/>
</svg>
